<?xml version="1.0" encoding="utf-8"?>
<!-- Generator: Adobe Illustrator 26.5.0, SVG Export Plug-In . SVG Version: 6.00 Build 0)  -->
<svg version="1.1" id="Camada_1" xmlns="http://www.w3.org/2000/svg" xmlns:xlink="http://www.w3.org/1999/xlink" x="0px" y="0px"
	 viewBox="0 0 47.6 52" style="enable-background:new 0 0 47.6 52;" xml:space="preserve">
<style type="text/css">
	.st0{fill:#6660B2;}
	.st1{fill:#A39CF7;}
	.st2{fill:#257C65;}
	.st3{fill:#1EA483;}
	.st4{fill:#9992EF;}
	.st5{fill:#837CE0;}
</style>
<path class="st0" d="M43.4,46.1L43.4,46.1l-3.5-3.5l0,0c1.4-1.4,1.6-4.6,0.4-8.4c-1.5-5-5.1-10.5-9.8-15.2c-3.4-3.4-7.1-6.1-10.8-8
	c-3.3-1.7-6.5-2.6-9.1-2.6c-1.7,0-3,0.4-3.7,1.2l0,0L3.3,6l0,0c1.8-1.8,4.3-2.6,7.3-2.6c6.7,0,15.7,4.4,23.4,12.1
	C45.1,26.5,49.3,40.3,43.4,46.1z"/>
<path class="st1" d="M36.1,8.4c1.7,0,3,0.4,3.7,1.2c1.4,1.4,1.6,4.6,0.4,8.4c-1.5,5-5.1,10.5-9.8,15.2c-3.4,3.4-7.1,6.1-10.8,8
	c-3.3,1.7-6.5,2.6-9.1,2.6c-1.7,0-3-0.4-3.7-1.2c-1.4-1.4-1.6-4.6-0.4-8.4c1.5-5,5.1-10.5,9.8-15.2c3.4-3.4,7.1-6.1,10.8-8
	C30.3,9.3,33.6,8.4,36.1,8.4L36.1,8.4L36.1,8.4 M36.1,3.4c-6.7,0-15.7,4.4-23.4,12.1C1.6,26.6-2.6,40.3,3.2,46.2
	c1.8,1.8,4.3,2.6,7.3,2.6c6.7,0,15.7-4.4,23.4-12.1C45,25.6,49.3,11.9,43.4,6C41.6,4.2,39.1,3.4,36.1,3.4L36.1,3.4z"/>
<circle class="st2" cx="23.3" cy="26.1" r="6.7"/>
<path class="st3" d="M23.3,32.8c-3.7,0-6.7-3-6.7-6.7c0-3.7,3-6.7,6.7-6.7"/>
<path class="st4" d="M43.4,6L43.4,6l-3.5,3.5l0,0c-1.4-1.4-4.6-1.6-8.4-0.4c-5,1.5-10.5,5.1-15.2,9.8c-3.4,3.4-6.1,7.1-8,10.8
	c-1.7,3.3-2.6,6.5-2.6,9.1c0,1.7,0.4,3,1.2,3.7l0,0l-3.5,3.5l0,0c-1.8-1.8-2.6-4.3-2.6-7.3c0-6.7,4.4-15.7,12.1-23.4
	C23.7,4.3,37.5,0.1,43.4,6z"/>
<path class="st5" d="M43.4,46.1L43.4,46.1l-3.5-3.5l-0.1,0.1c-1.4,1.4-4.6,1.6-8.4,0.4c-5-1.5-10.5-5.1-15.2-9.8
	c-3.4-3.4-6.1-7.1-8-10.8c-1.7-3.3-2.6-6.5-2.6-9.1c0-1.7,0.5-3,1.2-3.8l0,0L3.3,6l0,0c-1.8,1.8-2.7,4.4-2.7,7.4
	c0,6.7,4.4,15.7,12.1,23.4C23.7,47.9,37.6,52,43.4,46.1z"/>
</svg>
