<?xml version="1.0" encoding="utf-8"?>
<!-- Generator: Adobe Illustrator 26.5.0, SVG Export Plug-In . SVG Version: 6.00 Build 0)  -->
<svg version="1.1" id="Camada_1" xmlns="http://www.w3.org/2000/svg" xmlns:xlink="http://www.w3.org/1999/xlink" x="0px" y="0px"
	 viewBox="0 0 144.6 52" style="enable-background:new 0 0 144.6 52;" xml:space="preserve">
<style type="text/css">
	.st0{fill:#FFFFFF;}
	.st1{fill:#6660B2;}
	.st2{fill:#A39CF7;}
	.st3{fill:#257C65;}
	.st4{fill:#1EA483;}
	.st5{fill:#9992EF;}
	.st6{fill:#837CE0;}
</style>
<path class="st0" d="M64,44.1c0-0.2,0-0.4-0.1-0.6c-0.1-0.2-0.3-0.4-0.6-0.5c-0.3-0.2-0.7-0.3-1.3-0.4c-0.5-0.1-0.9-0.2-1.3-0.4
	c-0.4-0.1-0.7-0.3-1-0.5c-0.3-0.2-0.5-0.4-0.6-0.7c-0.1-0.3-0.2-0.6-0.2-1c0-0.3,0.1-0.7,0.2-1c0.2-0.3,0.4-0.6,0.7-0.8
	c0.3-0.2,0.6-0.4,1-0.6c0.4-0.1,0.8-0.2,1.3-0.2c0.7,0,1.3,0.1,1.8,0.4c0.5,0.3,0.9,0.6,1.1,1c0.3,0.4,0.4,0.9,0.4,1.4H64
	c0-0.2-0.1-0.5-0.2-0.7c-0.1-0.2-0.3-0.4-0.6-0.6c-0.3-0.2-0.6-0.2-1-0.2c-0.4,0-0.8,0.1-1,0.2c-0.3,0.1-0.4,0.3-0.6,0.5
	c-0.1,0.2-0.2,0.4-0.2,0.6c0,0.2,0,0.3,0.1,0.4c0.1,0.1,0.2,0.2,0.3,0.4c0.1,0.1,0.4,0.2,0.6,0.3c0.3,0.1,0.6,0.2,1,0.3
	c0.7,0.2,1.3,0.4,1.8,0.6c0.5,0.2,0.8,0.5,1,0.8c0.2,0.3,0.3,0.7,0.3,1.2c0,0.4-0.1,0.7-0.2,1.1c-0.2,0.3-0.4,0.6-0.7,0.8
	c-0.3,0.2-0.7,0.4-1.1,0.5c-0.4,0.1-0.9,0.2-1.4,0.2c-0.8,0-1.4-0.1-2-0.4c-0.5-0.3-0.9-0.6-1.2-1.1c-0.3-0.4-0.4-0.9-0.4-1.4h1.5
	c0,0.4,0.1,0.7,0.4,1c0.2,0.2,0.5,0.4,0.8,0.5c0.3,0.1,0.6,0.1,0.9,0.1c0.4,0,0.8-0.1,1-0.2c0.3-0.1,0.5-0.3,0.6-0.4
	C64,44.5,64,44.3,64,44.1z"/>
<path class="st0" d="M69,33.9v12.6h-1.5V33.9H69z M68.6,41.7l-0.6,0c0-0.6,0.1-1.2,0.3-1.7c0.2-0.5,0.4-1,0.7-1.3
	c0.3-0.4,0.7-0.7,1.1-0.9c0.4-0.2,0.9-0.3,1.4-0.3c0.4,0,0.8,0.1,1.2,0.2c0.3,0.1,0.6,0.3,0.9,0.6c0.2,0.3,0.4,0.6,0.6,1
	c0.1,0.4,0.2,0.9,0.2,1.5v5.8h-1.5v-5.8c0-0.5-0.1-0.8-0.2-1.1c-0.1-0.3-0.3-0.5-0.6-0.6c-0.3-0.1-0.6-0.2-1-0.2
	c-0.4,0-0.7,0.1-1,0.2c-0.3,0.2-0.6,0.4-0.8,0.7c-0.2,0.3-0.4,0.6-0.5,1C68.7,40.9,68.6,41.3,68.6,41.7z"/>
<path class="st0" d="M76.2,42.1v-0.2c0-0.6,0.1-1.2,0.3-1.8c0.2-0.6,0.4-1,0.8-1.4c0.3-0.4,0.8-0.7,1.3-0.9c0.5-0.2,1-0.3,1.6-0.3
	c0.6,0,1.2,0.1,1.7,0.3c0.5,0.2,0.9,0.5,1.3,0.9c0.4,0.4,0.6,0.9,0.8,1.4c0.2,0.5,0.3,1.1,0.3,1.8v0.2c0,0.6-0.1,1.2-0.3,1.8
	c-0.2,0.5-0.5,1-0.8,1.4c-0.3,0.4-0.8,0.7-1.3,0.9c-0.5,0.2-1,0.3-1.6,0.3c-0.6,0-1.2-0.1-1.7-0.3c-0.5-0.2-0.9-0.5-1.3-0.9
	c-0.3-0.4-0.6-0.9-0.8-1.4C76.3,43.3,76.2,42.7,76.2,42.1z M77.7,41.9v0.2c0,0.4,0.1,0.9,0.2,1.3c0.1,0.4,0.3,0.7,0.5,1
	c0.2,0.3,0.5,0.5,0.8,0.7c0.3,0.2,0.7,0.3,1.1,0.3c0.4,0,0.8-0.1,1.1-0.3c0.3-0.2,0.6-0.4,0.8-0.7c0.2-0.3,0.4-0.6,0.5-1
	c0.1-0.4,0.2-0.8,0.2-1.3v-0.2c0-0.4-0.1-0.8-0.2-1.2c-0.1-0.4-0.3-0.7-0.5-1c-0.2-0.3-0.5-0.5-0.8-0.7c-0.3-0.2-0.7-0.3-1.1-0.3
	c-0.4,0-0.8,0.1-1.1,0.3c-0.3,0.2-0.6,0.4-0.8,0.7c-0.2,0.3-0.4,0.6-0.5,1C77.8,41.1,77.7,41.5,77.7,41.9z"/>
<path class="st0" d="M87.6,39.3v10.5h-1.5V37.6h1.4L87.6,39.3z M93.5,41.9v0.2c0,0.6-0.1,1.2-0.2,1.8c-0.2,0.5-0.4,1-0.7,1.4
	c-0.3,0.4-0.6,0.7-1.1,0.9c-0.4,0.2-0.9,0.3-1.4,0.3c-0.6,0-1-0.1-1.5-0.3c-0.4-0.2-0.8-0.5-1.1-0.8c-0.3-0.4-0.5-0.8-0.7-1.3
	c-0.2-0.5-0.3-1.1-0.4-1.7v-0.9c0.1-0.7,0.2-1.2,0.4-1.8c0.2-0.5,0.4-1,0.7-1.3c0.3-0.4,0.7-0.7,1.1-0.8c0.4-0.2,0.9-0.3,1.5-0.3
	s1,0.1,1.5,0.3c0.4,0.2,0.8,0.5,1.1,0.9c0.3,0.4,0.5,0.9,0.7,1.4C93.4,40.6,93.5,41.3,93.5,41.9z M92,42.1v-0.2c0-0.4,0-0.9-0.1-1.2
	c-0.1-0.4-0.2-0.7-0.4-1c-0.2-0.3-0.4-0.5-0.7-0.7c-0.3-0.2-0.6-0.3-1.1-0.3c-0.4,0-0.7,0.1-1,0.2c-0.3,0.1-0.5,0.3-0.7,0.5
	c-0.2,0.2-0.4,0.5-0.5,0.8c-0.1,0.3-0.2,0.6-0.3,0.9v2.1c0.1,0.4,0.3,0.7,0.5,1.1c0.2,0.3,0.5,0.6,0.8,0.8c0.3,0.2,0.7,0.3,1.2,0.3
	c0.4,0,0.8-0.1,1-0.3c0.3-0.2,0.5-0.4,0.7-0.7c0.2-0.3,0.3-0.6,0.4-1C91.9,43,92,42.5,92,42.1z"/>
<path class="st1" d="M43.4,46.1L43.4,46.1l-3.5-3.5l0,0c1.4-1.4,1.6-4.6,0.4-8.4c-1.5-5-5.1-10.5-9.8-15.2c-3.4-3.4-7.1-6.1-10.8-8
	c-3.3-1.7-6.5-2.6-9.1-2.6c-1.7,0-3,0.4-3.7,1.2l0,0L3.3,6l0,0c1.8-1.8,4.3-2.6,7.3-2.6c6.7,0,15.7,4.4,23.4,12.1
	C45.1,26.5,49.3,40.3,43.4,46.1z"/>
<path class="st2" d="M36.1,8.4c1.7,0,3,0.4,3.7,1.2c1.4,1.4,1.6,4.6,0.4,8.4c-1.5,5-5.1,10.5-9.8,15.2c-3.4,3.4-7.1,6.1-10.8,8
	c-3.3,1.7-6.5,2.6-9.1,2.6c-1.7,0-3-0.4-3.7-1.2c-1.4-1.4-1.6-4.6-0.4-8.4c1.5-5,5.1-10.5,9.8-15.2c3.4-3.4,7.1-6.1,10.8-8
	C30.3,9.3,33.6,8.4,36.1,8.4L36.1,8.4L36.1,8.4 M36.1,3.4c-6.7,0-15.7,4.4-23.4,12.1C1.6,26.6-2.6,40.3,3.2,46.2
	c1.8,1.8,4.3,2.6,7.3,2.6c6.7,0,15.7-4.4,23.4-12.1C45,25.6,49.3,11.9,43.4,6C41.6,4.2,39.1,3.4,36.1,3.4L36.1,3.4z"/>
<circle class="st3" cx="23.3" cy="26.1" r="6.7"/>
<path class="st4" d="M23.3,32.8c-3.7,0-6.7-3-6.7-6.7c0-3.7,3-6.7,6.7-6.7"/>
<path class="st5" d="M43.4,6L43.4,6l-3.5,3.5l0,0c-1.4-1.4-4.6-1.6-8.4-0.4c-5,1.5-10.5,5.1-15.2,9.8c-3.4,3.4-6.1,7.1-8,10.8
	c-1.7,3.3-2.6,6.5-2.6,9.1c0,1.7,0.4,3,1.2,3.7l0,0l-3.5,3.5l0,0c-1.8-1.8-2.6-4.3-2.6-7.3c0-6.7,4.4-15.7,12.1-23.4
	C23.7,4.3,37.5,0.1,43.4,6z"/>
<path class="st6" d="M43.4,46.1L43.4,46.1l-3.5-3.5l-0.1,0.1c-1.4,1.4-4.6,1.6-8.4,0.4c-5-1.5-10.5-5.1-15.2-9.8
	c-3.4-3.4-6.1-7.1-8-10.8c-1.7-3.3-2.6-6.5-2.6-9.1c0-1.7,0.5-3,1.2-3.8l0,0L3.3,6l0,0c-1.8,1.8-2.7,4.4-2.7,7.4
	c0,6.7,4.4,15.7,12.1,23.4C23.7,47.9,37.6,52,43.4,46.1z"/>
<g>
	<path class="st0" d="M68.7,26.4c-0.2-0.3-0.3-0.7-0.4-1.3c-0.8,1.1-2,1.6-3.6,1.6c-1.4,0-2.6-0.4-3.6-1.3c-1-0.8-1.5-1.9-1.5-3.2
		c0-1.6,0.6-2.8,1.8-3.6c1.2-0.8,2.9-1.2,5.2-1.2h1.4v-0.8c0-1.4-0.6-2-1.8-2c-1.1,0-1.6,0.5-1.6,1.6h-4.6c0-1.4,0.6-2.6,1.8-3.5
		c1.2-0.9,2.8-1.3,4.7-1.3c1.9,0,3.4,0.5,4.5,1.4c1.1,0.9,1.7,2.2,1.7,3.8V23c0,1.4,0.2,2.4,0.6,3.1v0.2H68.7z M65.8,23.4
		c0.6,0,1-0.1,1.4-0.4c0.4-0.2,0.6-0.5,0.8-0.8v-2.4h-1.3c-1.6,0-2.4,0.7-2.4,2.2c0,0.4,0.1,0.8,0.4,1C65,23.2,65.4,23.4,65.8,23.4z
		"/>
	<path class="st0" d="M80.6,7.9v3.7H83v3.2h-2.4v6.8c0,0.6,0.1,0.9,0.3,1.2c0.2,0.2,0.6,0.3,1.2,0.3c0.5,0,0.8,0,1.1-0.1v3.3
		c-0.8,0.3-1.7,0.4-2.6,0.4c-1.6,0-2.8-0.4-3.5-1.1S76,23.7,76,22.1v-7.3h-1.9v-3.2H76V7.9H80.6z"/>
	<path class="st0" d="M83.8,18.9c0-1.5,0.3-2.8,0.9-3.9c0.6-1.2,1.4-2,2.5-2.7s2.3-0.9,3.8-0.9c2.2,0,4,0.7,5.2,2.1
		c1.3,1.4,1.9,3.2,1.9,5.6v0.2c0,2.3-0.6,4.1-1.9,5.5s-3,2-5.2,2c-2.1,0-3.8-0.6-5.1-1.9c-1.3-1.3-2-3-2.1-5.1L83.8,18.9z
		 M88.4,19.1c0,1.4,0.2,2.4,0.6,3s1.1,1,1.9,1c1.6,0,2.5-1.3,2.5-3.8v-0.5c0-2.6-0.8-4-2.5-4c-1.5,0-2.4,1.1-2.5,3.4L88.4,19.1z"/>
	<path class="st0" d="M104.5,11.6l0.1,1.7c1-1.3,2.5-2,4.2-2c1.9,0,3.1,0.7,3.8,2.2c1-1.5,2.4-2.2,4.3-2.2c3,0,4.5,1.8,4.6,5.4v9.6
		H117v-9.3c0-0.8-0.1-1.3-0.4-1.7s-0.7-0.5-1.4-0.5c-0.9,0-1.6,0.4-2,1.2l0,0.2v10.1h-4.6v-9.3c0-0.8-0.1-1.3-0.4-1.7
		c-0.2-0.3-0.7-0.5-1.4-0.5c-0.9,0-1.6,0.4-2,1.2v10.3h-4.6V11.6H104.5z"/>
	<path class="st0" d="M124.2,7.8c0-0.7,0.2-1.2,0.7-1.6c0.5-0.4,1.1-0.6,1.8-0.6c0.8,0,1.4,0.2,1.8,0.6c0.5,0.4,0.7,1,0.7,1.6
		S129,9,128.6,9.4c-0.5,0.4-1.1,0.6-1.8,0.6c-0.8,0-1.4-0.2-1.8-0.6C124.4,9,124.2,8.5,124.2,7.8z M129.1,26.4h-4.6V11.6h4.6V26.4z"
		/>
	<path class="st0" d="M138.1,23.1c0.6,0,1.1-0.2,1.5-0.5c0.4-0.4,0.5-0.8,0.5-1.5h4.3c0,1.6-0.6,2.9-1.7,4c-1.2,1-2.7,1.6-4.5,1.6
		c-2.1,0-3.8-0.7-5.1-2c-1.2-1.3-1.9-3.2-1.9-5.6v-0.2c0-1.5,0.3-2.8,0.8-4s1.3-2,2.4-2.6c1-0.6,2.3-0.9,3.7-0.9
		c1.9,0,3.4,0.5,4.6,1.6c1.1,1.1,1.7,2.5,1.7,4.3h-4.3c0-0.8-0.2-1.4-0.6-1.8c-0.4-0.4-0.9-0.6-1.5-0.6c-1.2,0-1.9,0.8-2.1,2.3
		c-0.1,0.5-0.1,1.1-0.1,2c0,1.5,0.2,2.5,0.5,3.1C136.8,22.8,137.4,23.1,138.1,23.1z"/>
</g>
</svg>
